<?xml version="1.0" standalone="no"?>
<!DOCTYPE svg PUBLIC "-//W3C//DTD SVG 20010904//EN"
 "http://www.w3.org/TR/2001/REC-SVG-20010904/DTD/svg10.dtd">
<svg version="1.0" xmlns="http://www.w3.org/2000/svg"
 width="56.000000pt" height="72.000000pt" viewBox="0 0 56.000000 72.000000"
 preserveAspectRatio="xMidYMid meet">

<g transform="translate(0.000000,72.000000) scale(0.100000,-0.100000)"
fill="#000000" stroke="none">
<path d="M94 637 c-2 -7 -3 -69 -2 -138 l3 -124 78 -3 77 -3 0 -29 c0 -17 4
-30 8 -30 5 0 7 14 4 30 l-4 30 104 0 c68 0 108 4 116 12 17 17 17 239 0 256
-18 18 -377 17 -384 -1z m381 -127 l0 -125 -187 -3 -188 -2 0 130 0 130 188
-2 187 -3 0 -125z"/>
<path d="M286 514 c-15 -36 -25 -68 -23 -70 2 -2 16 26 30 63 15 37 25 68 23
70 -2 2 -16 -26 -30 -63z"/>
<path d="M205 550 c-3 -6 1 -7 9 -4 18 7 21 14 7 14 -6 0 -13 -4 -16 -10z"/>
<path d="M384 536 c10 -9 24 -18 30 -21 8 -4 8 -6 0 -10 -6 -3 -20 -12 -30
-21 -14 -11 -9 -10 19 3 20 9 37 20 37 23 0 3 -17 14 -37 23 -28 13 -33 14
-19 3z"/>
<path d="M163 528 c-30 -14 -29 -22 5 -37 25 -10 26 -10 8 4 -20 15 -20 15 0
30 22 17 18 18 -13 3z"/>
<path d="M207 469 c7 -7 15 -10 18 -7 3 3 -2 9 -12 12 -14 6 -15 5 -6 -5z"/>
<path d="M176 209 c-62 -48 -6 -141 68 -113 9 3 16 11 16 17 0 7 -4 7 -12 -1
-32 -32 -88 1 -88 51 0 20 9 33 33 47 17 11 27 20 21 20 -6 0 -23 -9 -38 -21z"/>
<path d="M236 213 c5 -5 12 -12 16 -18 4 -6 8 -2 8 8 0 9 -7 17 -17 17 -9 0
-12 -3 -7 -7z"/>
<path d="M388 189 l5 -31 -47 3 c-25 2 -46 1 -46 -3 0 -5 20 -8 45 -8 43 0 45
-1 45 -30 0 -16 3 -30 8 -30 4 0 5 29 4 65 -2 36 -7 65 -11 65 -4 0 -5 -14 -3
-31z"/>
</g>
</svg>
